<svg xmlns="http://www.w3.org/2000/svg" xmlns:xlink="http://www.w3.org/1999/xlink" width="1764.286" height="1976" viewBox="0 0 1764.286 1976"><defs><linearGradient id="a" x1="0.5" y1="16.786" x2="0.5" y2="0.947" gradientUnits="objectBoundingBox"><stop offset="0" stop-color="#4c8169"/><stop offset="0.175" stop-color="#4d836f"/><stop offset="0.419" stop-color="#508881"/><stop offset="0.705" stop-color="#56929f"/><stop offset="1" stop-color="#5e9ec6"/></linearGradient><linearGradient id="b" x1="0.5" y1="7.604" x2="0.5" y2="-8.235" xlink:href="#a"/><linearGradient id="c" x1="0.5" y1="8.65" x2="0.5" y2="-7.189" xlink:href="#a"/><linearGradient id="e" x1="0.5" y1="15.604" x2="0.5" y2="-0.235" xlink:href="#a"/><linearGradient id="g" x1="0.5" y1="9.877" x2="0.5" y2="-5.962" xlink:href="#a"/><linearGradient id="h" x1="0.5" y1="12.15" x2="0.5" y2="-3.689" xlink:href="#a"/><linearGradient id="i" x1="0.5" y1="14.422" x2="0.5" y2="-1.416" xlink:href="#a"/></defs><g transform="translate(-483.857 -36)" opacity="0.1"><circle cx="97.036" cy="97.036" r="97.036" transform="translate(1260.143 36)" fill="url(#a)"/><circle cx="97.036" cy="97.036" r="97.036" transform="translate(1260.143 1817.929)" fill="url(#b)"/><circle cx="97.036" cy="97.036" r="97.036" transform="translate(1648.286 1615.036)" fill="url(#c)"/><circle cx="97.036" cy="97.036" r="97.036" transform="translate(872 1615.036)" fill="url(#c)"/><circle cx="97.036" cy="97.036" r="97.036" transform="translate(1648.286 265.357)" fill="url(#e)"/><circle cx="97.036" cy="97.036" r="97.036" transform="translate(872 265.357)" fill="url(#e)"/><circle cx="97.036" cy="97.036" r="97.036" transform="translate(483.857 1376.857)" fill="url(#g)"/><circle cx="97.036" cy="97.036" r="97.036" transform="translate(483.857 935.786)" fill="url(#h)"/><circle cx="97.036" cy="97.036" r="97.036" transform="translate(483.857 494.714)" fill="url(#i)"/><circle cx="97.036" cy="97.036" r="97.036" transform="translate(2054.072 1376.857)" fill="url(#g)"/><circle cx="97.036" cy="97.036" r="97.036" transform="translate(2054.072 935.786)" fill="url(#h)"/><circle cx="97.036" cy="97.036" r="97.036" transform="translate(2054.072 494.714)" fill="url(#i)"/></g></svg>