<svg xmlns="http://www.w3.org/2000/svg" xmlns:xlink="http://www.w3.org/1999/xlink" width="1294.934" height="825.25" viewBox="0 0 1294.934 825.25"><defs><linearGradient id="a" x1="0.5" y1="2.37" x2="0.5" y2="-0.043" gradientUnits="objectBoundingBox"><stop offset="0" stop-color="#4c8169"/><stop offset="0.175" stop-color="#4d836f"/><stop offset="0.419" stop-color="#508881"/><stop offset="0.705" stop-color="#56929f"/><stop offset="1" stop-color="#5e9ec6"/></linearGradient><linearGradient id="b" x1="0.5" y1="2.37" x2="0.5" y2="-0.043" xlink:href="#a"/><linearGradient id="c" x1="0.5" y1="2.285" x2="0.5" y2="-0.015" xlink:href="#a"/><linearGradient id="h" x1="0.5" y1="2.369" x2="0.5" y2="-0.042" xlink:href="#a"/><linearGradient id="j" x1="0.5" y1="3.513" x2="0.5" y2="-0.425" xlink:href="#a"/><linearGradient id="k" x1="0.5" y1="3.51" x2="0.5" y2="-0.424" xlink:href="#a"/><linearGradient id="n" x1="0.5" y1="3.377" x2="0.5" y2="-0.38" xlink:href="#a"/><linearGradient id="q" x1="0.5" y1="3.512" x2="0.5" y2="-0.425" xlink:href="#a"/><linearGradient id="r" x1="0.5" y1="3.373" x2="0.5" y2="-0.379" xlink:href="#a"/><linearGradient id="s" x1="0.5" y1="3.512" x2="0.5" y2="-0.425" xlink:href="#a"/><linearGradient id="t" x1="0.5" y1="21.135" x2="0.5" y2="-2.556" xlink:href="#a"/><linearGradient id="u" x1="0.5" y1="18.543" x2="0.5" y2="-5.149" xlink:href="#a"/><linearGradient id="v" x1="0.5" y1="16.118" x2="0.5" y2="-7.572" xlink:href="#a"/><linearGradient id="w" x1="0.5" y1="16.786" x2="0.5" y2="0.947" xlink:href="#a"/><linearGradient id="x" x1="0.5" y1="14.422" x2="0.5" y2="-1.416" xlink:href="#a"/><linearGradient id="y" x1="0.5" y1="13.332" x2="0.5" y2="-2.507" xlink:href="#a"/><linearGradient id="z" x1="0.5" y1="10.968" x2="0.5" y2="-4.871" xlink:href="#a"/><linearGradient id="ac" x1="0.5" y1="12.15" x2="0.5" y2="-3.689" xlink:href="#a"/><linearGradient id="ad" x1="0.5" y1="9.877" x2="0.5" y2="-5.962" xlink:href="#a"/><linearGradient id="ae" x1="0.5" y1="7.604" x2="0.5" y2="-8.235" xlink:href="#a"/><linearGradient id="af" x1="0.5" y1="8.65" x2="0.5" y2="-7.189" xlink:href="#a"/><linearGradient id="ah" x1="0.5" y1="15.604" x2="0.5" y2="-0.235" xlink:href="#a"/><linearGradient id="ap" x1="0.5" y1="3.556" x2="0.5" y2="-0.413" xlink:href="#a"/></defs><g transform="translate(-718.533 -542)"><path d="M801.982,1108.77l48.182-93.142a9.186,9.186,0,0,1,16.418,0l48.336,93.142a9.3,9.3,0,0,1-16.572,8.439l-39.9-77.183L818.4,1117.209a9.082,9.082,0,0,1-12.429,3.99A9.211,9.211,0,0,1,801.982,1108.77Z" fill="url(#a)"/><path d="M943.461,1113.066v-93.294a9.284,9.284,0,0,1,18.567,0v83.934h62.759a9.284,9.284,0,1,1,0,18.567H952.668A9.234,9.234,0,0,1,943.461,1113.066Z" fill="url(#b)"/><path d="M1057.164,1066.112c0-32.07,26.7-58.616,59.691-58.616a60.586,60.586,0,0,1,33.3,9.974,9.229,9.229,0,0,1,2.608,12.89,9.023,9.023,0,0,1-12.736,2.608,42.693,42.693,0,0,0-23.17-6.905c-22.4,0-41.124,17.646-41.124,40.049s18.567,40.049,41.124,40.049c18.26,0,31.149-11.815,34.218-25.778h-25.932a9.207,9.207,0,1,1,0-18.413H1161.2a9.169,9.169,0,0,1,9.207,8.9c1.228,28.694-21.483,53.859-53.552,53.859C1083.557,1124.728,1057.164,1098.029,1057.164,1066.112Z" fill="url(#c)"/><path d="M1201.1,1066.112c0-32.53,27.16-58.616,59.691-58.616,32.683,0,59.69,25.932,59.69,58.616,0,32.837-26.853,58.616-59.69,58.616C1228.1,1124.728,1201.1,1098.8,1201.1,1066.112Zm59.691,40.049c22.556,0,41.123-17.646,41.123-40.049s-18.72-40.049-41.123-40.049-41.124,17.646-41.124,40.049S1238.23,1106.161,1260.787,1106.161Z" fill="url(#c)"/><path d="M1351.167,1113.066v-93.294a9.235,9.235,0,0,1,9.207-9.207h49.1c16.725,0,33.144,11.969,33.144,34.986,0,17.953-9.667,28.387-20.409,32.837l15.8,30.382a9.3,9.3,0,0,1-16.572,8.439L1402.725,1081h-32.991v32.07a9.284,9.284,0,0,1-18.567,0Zm58.31-50.637c8.285,0,14.577-5.83,14.577-16.878s-6.6-16.418-14.577-16.418h-39.743v33.3Z" fill="url(#b)"/><path d="M1477.913,1113.066v-93.294a9.234,9.234,0,0,1,9.207-9.207,9.367,9.367,0,0,1,9.36,9.207v93.294a9.367,9.367,0,0,1-9.36,9.207A9.234,9.234,0,0,1,1477.913,1113.066Z" fill="url(#b)"/><path d="M1572.839,1113.066v-83.933h-37.9a9.284,9.284,0,0,1,0-18.568h94.216a9.284,9.284,0,1,1,0,18.568h-37.748v83.933a9.284,9.284,0,0,1-18.567,0Z" fill="url(#b)"/><path d="M1670.641,1112.759v-92.681a9.481,9.481,0,0,1,6.138-8.9,9.228,9.228,0,0,1,10.435,2.455l40.2,43.732,40.05-43.732a9.226,9.226,0,0,1,10.434-2.455,9.481,9.481,0,0,1,6.138,8.9v92.681a9.562,9.562,0,0,1-9.514,9.514,9.464,9.464,0,0,1-9.514-9.514v-68.436l-30.535,33.6a9.8,9.8,0,0,1-7.059,3.222,9.3,9.3,0,0,1-7.058-3.222l-30.689-33.6v68.436a9.463,9.463,0,0,1-9.513,9.514A9.562,9.562,0,0,1,1670.641,1112.759Z" fill="url(#h)"/><path d="M1811.66,1066.112c0-32.53,27.16-58.616,59.691-58.616,32.683,0,59.69,25.932,59.69,58.616,0,32.837-26.853,58.616-59.69,58.616C1838.667,1124.728,1811.66,1098.8,1811.66,1066.112Zm59.691,40.049c22.556,0,41.123-17.646,41.123-40.049s-18.72-40.049-41.123-40.049-41.124,17.646-41.124,40.049S1848.794,1106.161,1871.351,1106.161Z" fill="url(#c)"/><path d="M718.533,1255.246v-93.295a9.234,9.234,0,0,1,9.207-9.206,9.367,9.367,0,0,1,9.36,9.206v93.295a9.367,9.367,0,0,1-9.36,9.207A9.234,9.234,0,0,1,718.533,1255.246Z" fill="url(#j)"/><path d="M772.393,1254.939v-92.681a9.482,9.482,0,0,1,6.137-8.9,9.228,9.228,0,0,1,10.435,2.456l68.129,74.421v-67.977a9.591,9.591,0,0,1,19.181,0v92.681a9.479,9.479,0,0,1-6.138,8.9,9.845,9.845,0,0,1-10.587-2.455L791.573,1186.5v68.436a9.59,9.59,0,0,1-19.18,0Z" fill="url(#k)"/><path d="M954.073,1255.246v-83.934h-37.9a9.284,9.284,0,0,1,0-18.567h94.215a9.284,9.284,0,1,1,0,18.567H972.64v83.934a9.284,9.284,0,0,1-18.567,0Z" fill="url(#j)"/><path d="M1176.416,1255.246v-93.295a9.234,9.234,0,0,1,9.207-9.206h49.1c16.726,0,33.145,11.968,33.145,34.986,0,17.952-9.668,28.387-20.409,32.837l15.8,30.382a9.3,9.3,0,0,1-16.572,8.439l-18.72-36.213h-32.991v32.07a9.284,9.284,0,0,1-18.567,0Zm58.309-50.637c8.286,0,14.578-5.83,14.578-16.878s-6.6-16.419-14.578-16.419h-39.742v33.3Z" fill="url(#j)"/><path d="M1433.441,1208.292c0-31.61,25.625-58.463,59.69-58.463a60.817,60.817,0,0,1,33.3,9.821,9.3,9.3,0,0,1-10.281,15.5,41.808,41.808,0,0,0-23.017-6.9c-22.4,0-41.277,17.8-41.277,40.049,0,21.789,18.414,40.049,41.277,40.049a41.168,41.168,0,0,0,23.477-7.212,9.3,9.3,0,0,1,12.889,2.456,9.192,9.192,0,0,1-2.454,12.889,59.387,59.387,0,0,1-33.912,10.434C1460.754,1266.908,1433.441,1241.59,1433.441,1208.292Z" fill="url(#n)"/><path d="M1608.982,1255.246v-83.934h-37.9a9.284,9.284,0,0,1,0-18.567H1665.3a9.284,9.284,0,1,1,0,18.567h-37.748v83.934a9.284,9.284,0,0,1-18.567,0Z" fill="url(#j)"/><path d="M1705.347,1255.246v-93.295a9.234,9.234,0,0,1,9.207-9.206,9.367,9.367,0,0,1,9.36,9.206v93.295a9.367,9.367,0,0,1-9.36,9.207A9.234,9.234,0,0,1,1705.347,1255.246Z" fill="url(#j)"/><path d="M1803.859,1259.389l-48.182-93.141a9.21,9.21,0,0,1,3.989-12.429,9.081,9.081,0,0,1,12.429,3.989l39.9,77.183,40.05-77.183a9.081,9.081,0,0,1,12.429-3.989,9.21,9.21,0,0,1,3.989,12.429l-48.182,93.141a9.185,9.185,0,0,1-16.418,0Z" fill="url(#q)"/><path d="M1894.086,1208.292c0-32.53,27.16-58.616,59.691-58.616,32.683,0,59.69,25.932,59.69,58.616,0,32.837-26.853,58.616-59.69,58.616C1921.093,1266.908,1894.086,1240.976,1894.086,1208.292Zm59.691,40.049c22.556,0,41.123-17.646,41.123-40.049s-18.72-40.049-41.123-40.049-41.124,17.646-41.124,40.049S1931.22,1248.341,1953.777,1248.341Z" fill="url(#r)"/><path d="M1409.5,1250.95l-48.335-93.142a9.187,9.187,0,0,0-16.419,0l-48.182,93.142a9.211,9.211,0,0,0,3.989,12.429,9.084,9.084,0,0,0,12.43-3.99l11.355-22.1,9.82-18.567,18.874-36.52,18.874,36.52,9.667,18.567,11.355,22.1a9.3,9.3,0,0,0,16.572-8.439Z" fill="url(#s)"/><path d="M1131.4,1152.745h-71.6a9.268,9.268,0,0,0-9.36,9.206h0a9.361,9.361,0,0,0,9.361,9.361h72.118a9.258,9.258,0,0,0,9.2-8.954C1141.335,1157.075,1136.691,1152.745,1131.4,1152.745Z" fill="url(#t)"/><path d="M1093.06,1200.889h-33.339a9.283,9.283,0,0,0-9.283,9.283h0a9.283,9.283,0,0,0,9.283,9.283h32.9c5.245,0,9.816-4.295,9.638-9.538A9.259,9.259,0,0,0,1093.06,1200.889Z" fill="url(#u)"/><path d="M1131.917,1245.886H1059.8a9.361,9.361,0,0,0-9.36,9.36h0a9.268,9.268,0,0,0,9.36,9.207h71.681c5.245,0,9.816-4.3,9.639-9.538A9.259,9.259,0,0,0,1131.917,1245.886Z" fill="url(#v)"/><text transform="translate(1016.415 1350.25)" fill="#02516a" font-size="72.704" font-family="Helvetica"><tspan x="0" y="0">urticaria - angiodema</tspan></text><circle cx="20.596" cy="20.596" r="20.596" transform="translate(1343.532 542)" fill="url(#w)"/><circle cx="20.596" cy="20.596" r="20.596" transform="translate(1343.532 639.362)" fill="url(#x)"/><circle cx="20.596" cy="20.596" r="20.596" transform="translate(1261.149 684.298)" fill="url(#y)"/><circle cx="20.596" cy="20.596" r="20.596" transform="translate(1261.149 781.659)" fill="url(#z)"/><circle cx="20.596" cy="20.596" r="20.596" transform="translate(1425.915 684.298)" fill="url(#y)"/><circle cx="20.596" cy="20.596" r="20.596" transform="translate(1425.915 781.659)" fill="url(#z)"/><circle cx="20.596" cy="20.596" r="20.596" transform="translate(1343.532 732.979)" fill="url(#ac)"/><circle cx="20.596" cy="20.596" r="20.596" transform="translate(1343.532 826.596)" fill="url(#ad)"/><circle cx="20.596" cy="20.596" r="20.596" transform="translate(1343.532 920.213)" fill="url(#ae)"/><circle cx="20.596" cy="20.596" r="20.596" transform="translate(1425.915 877.149)" fill="url(#af)"/><circle cx="20.596" cy="20.596" r="20.596" transform="translate(1261.149 877.149)" fill="url(#af)"/><circle cx="20.596" cy="20.596" r="20.596" transform="translate(1425.915 590.681)" fill="url(#ah)"/><circle cx="20.596" cy="20.596" r="20.596" transform="translate(1261.149 590.681)" fill="url(#ah)"/><circle cx="20.596" cy="20.596" r="20.596" transform="translate(1178.766 826.596)" fill="url(#ad)"/><circle cx="20.596" cy="20.596" r="20.596" transform="translate(1178.766 732.979)" fill="url(#ac)"/><circle cx="20.596" cy="20.596" r="20.596" transform="translate(1178.766 639.362)" fill="url(#x)"/><circle cx="20.596" cy="20.596" r="20.596" transform="translate(1512.042 826.596)" fill="url(#ad)"/><circle cx="20.596" cy="20.596" r="20.596" transform="translate(1512.042 732.979)" fill="url(#ac)"/><circle cx="20.596" cy="20.596" r="20.596" transform="translate(1512.042 639.362)" fill="url(#x)"/><path d="M1446.521,813.294a11.036,11.036,0,0,1-9.563-5.51l-72.831-125.8-72.829,125.8a11.037,11.037,0,0,1-19.1-11.058l82.381-142.3a11.037,11.037,0,0,1,19.1,0l82.383,142.3a11.04,11.04,0,0,1-9.541,16.568Z" fill="url(#ap)"/></g></svg>